Coordinates
version=1
nRows=22
nColumns=24
inDegrees=yes

Units are S.I. units (second, meters, Newtons, ...)
Angles are in degrees.

endheader
time	pelvis_tilt	pelvis_list	pelvis_rotation	pelvis_tx	pelvis_ty	pelvis_tz	hip_flexion_r	hip_adduction_r	hip_rotation_r	knee_angle_r	ankle_angle_r	subtalar_angle_r	mtp_angle_r	hip_flexion_l	hip_adduction_l	hip_rotation_l	knee_angle_l	ankle_angle_l	subtalar_angle_l	mtp_angle_l	lumbar_extension	lumbar_bending	lumbar_rotation
      0.98150000	     -3.37163292	     -1.94066704	      1.47166619	      0.50724894	      0.99322359	      0.33188747	     17.45379169	      5.97047234	      1.85970562	    -25.33332624	     12.00500363	    -13.66545610	      1.08585323	     15.97278509	     -3.47508069	     -0.63900230	    -69.40258672	     -0.14681697	     -6.90419520	      3.93895048	     -8.42862107	     11.15489290	     -4.26570677
      0.98566667	     -3.35073392	     -1.78156142	      1.29270616	      0.51178009	      0.99426389	      0.33238461	     16.94132167	      5.87456691	      2.06415520	    -24.93158835	     12.01976196	    -13.62308340	      1.09944958	     16.50956382	     -3.38288820	     -0.82282317	    -69.13133297	      0.53609564	     -6.73901035	      3.91900847	     -8.52462847	     10.91223776	     -4.01658385
      0.98983333	     -3.30808909	     -1.64500999	      1.12951271	      0.51637691	      0.99532818	      0.33289066	     16.37684532	      5.79846452	      2.25666889	    -24.47250451	     12.07541018	    -13.61326857	      1.12298676	     17.00974998	     -3.32964210	     -1.00337607	    -68.80816726	      1.17622311	     -6.45331874	      3.87209530	     -8.61165362	     10.66120302	     -3.58262518
      0.99400000	     -3.25579637	     -1.49456403	      0.95905898	      0.52095756	      0.99639829	      0.33338184	     15.80897590	      5.70371125	      2.45286919	    -24.02426767	     12.10084070	    -13.59081516	      1.14573355	     17.48245132	     -3.25787222	     -1.18936571	    -68.42695521	      1.80800564	     -6.23918386	      3.82581368	     -8.72308781	     10.40955994	     -3.26407874
      0.99816667	     -3.21581284	     -1.34572129	      0.78538278	      0.52553587	      0.99742860	      0.33385456	     15.25235407	      5.60549993	      2.65448953	    -23.56635670	     12.09976969	    -13.56799348	      1.18030702	     17.95683316	     -3.18489417	     -1.37357754	    -68.00116702	      2.41833098	     -6.05995217	      3.74541477	     -8.82058848	     10.16910221	     -2.88040367
      1.00233333	     -3.20538366	     -1.16615266	      0.61371378	      0.53008148	      0.99835954	      0.33431793	     14.75083647	      5.46828770	      2.84861985	    -23.15764626	     12.13667827	    -13.51664418	      1.20059023	     18.45539885	     -3.07680852	     -1.55860628	    -67.53332284	      3.00120420	     -5.87635995	      3.70791189	     -8.88334587	      9.89559864	     -2.67800055
      1.00650000	     -3.15372072	     -1.01411182	      0.45070424	      0.53467120	      0.99933186	      0.33477083	     14.18371521	      5.35432296	      3.02776314	    -22.70181627	     12.18704227	    -13.48111013	      1.22973189	     18.89546824	     -3.00841380	     -1.74512877	    -67.01993170	      3.56102082	     -5.66569706	      3.64686704	     -8.97307649	      9.63870728	     -2.31677878
      1.01066667	     -3.13194939	     -0.85037217	      0.27934444	      0.53923424	      1.00022103	      0.33519491	     13.66622107	      5.22344759	      3.21703003	    -22.27816689	     12.18399243	    -13.42144802	      1.25019577	     19.35579921	     -2.91606031	     -1.92508472	    -66.46367158	      4.09985164	     -5.54666553	      3.60459825	     -9.04496853	      9.40249281	     -2.08897374
      1.01483333	     -3.07587617	     -0.69524724	      0.11566040	      0.54381784	      1.00113622	      0.33561357	     13.10067049	      5.09612332	      3.39549728	    -21.82925722	     12.21140488	    -13.37519097	      1.27368221	     19.76514988	     -2.83658881	     -2.10035583	    -65.86148783	      4.60597642	     -5.40051017	      3.55504217	     -9.14612377	      9.15913654	     -1.79879488
      1.01900000	     -3.01876573	     -0.55348333	     -0.04156980	      0.54842305	      1.00202128	      0.33603226	     12.52791590	      4.97946733	      3.56596615	    -21.36724379	     12.26148734	    -13.35131709	      1.30991604	     20.16324012	     -2.77671704	     -2.27516378	    -65.22153605	      5.05622086	     -5.27391594	      3.47009945	     -9.23984120	      8.90067891	     -1.41556961
      1.02316667	     -3.01413489	     -0.38305015	     -0.21274648	      0.55299105	      1.00277154	      0.33641437	     12.04406916	      4.82354315	      3.72490841	    -20.96509264	     12.25658796	    -13.26504572	      1.33056110	     20.60604731	     -2.67533548	     -2.45210740	    -64.54141462	      5.49484044	     -5.24266014	      3.42500105	     -9.26834885	      8.65505859	     -1.24611641
      1.02733333	     -2.93064022	     -0.24717006	     -0.36248428	      0.55759002	      1.00362105	      0.33678352	     11.44473633	      4.70209502	      3.89754392	    -20.50365417	     12.32849245	    -13.21684206	      1.37297142	     20.95091413	     -2.60629688	     -2.59452277	    -63.81991020	      5.87690546	     -5.16378788	      3.32379829	     -9.40746576	      8.42382496	     -0.85145777
      1.03150000	     -2.87659734	     -0.08582571	     -0.52323674	      0.56217447	      1.00438918	      0.33712979	     10.89918692	      4.54584790	      4.05281345	    -20.08063915	     12.36351021	    -13.13949038	      1.41458735	     21.31256375	     -2.50605095	     -2.74662189	    -63.05349475	      6.22615145	     -5.16225298	      3.22433646	     -9.49885792	      8.17585018	     -0.58091627
      1.03566667	     -2.84205933	      0.06959272	     -0.68371430	      0.56676219	      1.00508954	      0.33745931	     10.38189822	      4.38959270	      4.19077151	    -19.66777294	     12.36067661	    -13.03198255	      1.43664167	     21.68548264	     -2.40958901	     -2.89268467	    -62.25604758	      6.56088168	     -5.20109033	      3.17396204	     -9.55770590	      7.94240033	     -0.43171069
      1.03983333	     -2.77080404	      0.20892893	     -0.83650696	      0.57135649	      1.00578920	      0.33776448	      9.81850734	      4.24702567	      4.33836258	    -19.24691674	     12.44943611	    -12.95204188	      1.48477723	     22.00560853	     -2.31958700	     -3.00504187	    -61.42068749	      6.82201467	     -5.24639093	      3.05914057	     -9.68120680	      7.72070855	     -0.04346954
      1.04400000	     -2.70562818	      0.35899878	     -0.99359740	      0.57595840	      1.00645285	      0.33805204	      9.27132380	      4.08592636	      4.46800167	    -18.84069679	     12.49893019	    -12.84038550	      1.53024715	     22.31658180	     -2.21476382	     -3.11854787	    -60.54398404	      7.06349617	     -5.33815430	      2.95137233	     -9.78147033	      7.49308755	      0.20942299
      1.04816667	     -2.67933496	      0.50868656	     -1.15451256	      0.58054844	      1.00700868	      0.33831981	      8.77936208	      3.92116389	      4.59188003	    -18.45703729	     12.51065919	    -12.71225236	      1.56042187	     22.65922927	     -2.10571475	     -3.21995211	    -59.63848186	      7.29143755	     -5.44592281	      2.88003482	     -9.83522559	      7.28469281	      0.39614163
      1.05233333	     -2.59458510	      0.63858686	     -1.29563644	      0.58515666	      1.00760712	      0.33855704	      8.21102171	      3.77011252	      4.69614790	    -18.05054488	     12.62196948	    -12.57817729	      1.61485659	     22.92847072	     -2.00556384	     -3.28587293	    -58.70001848	      7.44423458	     -5.61515541	      2.75237746	     -9.96753581	      7.06770716	      0.72673328
      1.05650000	     -2.53888745	      0.76801566	     -1.44430862	      0.58976705	      1.00812411	      0.33878056	      7.68431751	      3.61584167	      4.79586874	    -17.66139394	     12.68303380	    -12.44496938	      1.66220029	     23.21470459	     -1.90535363	     -3.34940620	    -57.72858973	      7.58598011	     -5.78421883	      2.63947560	    -10.05199251	      6.86724856	      0.96712742
      1.06066667	     -2.48096982	      0.89666841	     -1.58792795	      0.59437826	      1.00859652	      0.33897961	      7.15976748	      3.45720957	      4.88051156	    -17.28054793	     12.75593973	    -12.29449391	      1.70915926	     23.48569025	     -1.79739987	     -3.39090332	    -56.72370632	      7.69708969	     -5.98343019	      2.52758765	    -10.14326442	      6.67240116	      1.20930661
      1.06483333	     -2.41491294	      1.00901865	     -1.72725716	      0.59898659	      1.00902337	      0.33916564	      6.62922266	      3.31214341	      4.95642961	    -16.90468777	     12.83356915	    -12.13645085	      1.75552150	     23.73820467	     -1.70254212	     -3.41238155	    -55.69545628	      7.78524944	     -6.19351107	      2.41643332	    -10.24619506	      6.49426992	      1.44770154
      1.06900000	     -2.36499863	      1.12403148	     -1.86222631	      0.60360515	      1.00939319	      0.33931885	      6.11888600	      3.15918814	      5.02098954	    -16.53494571	     12.91701312	    -11.97310311	      1.80102172	     23.99262713	     -1.59660082	     -3.41451807	    -54.63069279	      7.83398398	     -6.42908941	      2.30531059	    -10.32685119	      6.31781398	      1.68356203
